<svg xmlns="http://www.w3.org/2000/svg" viewBox="0 0 1500 830" preserveAspectRatio="xMidYMid slice"><defs>
<radialGradient id="sky"><stop stop-color="#333d87"/><stop offset=".47" stop-color="#151f53"/><stop offset="1" stop-color="#070c1c"/></radialGradient>
<radialGradient id="neb"><stop stop-color="#62d8ed" stop-opacity=".46"/><stop offset=".46" stop-color="#aa75d6" stop-opacity=".26"/><stop offset="1" stop-color="#101532" stop-opacity="0"/></radialGradient>
<linearGradient id="orb" x1="0" y1="0" x2=".8" y2="1"><stop stop-color="#f0fcff" stop-opacity=".88"/><stop offset=".45" stop-color="#aa8afa" stop-opacity=".17"/><stop offset="1" stop-color="#fae1af" stop-opacity=".64"/></linearGradient>
<linearGradient id="island" x1="0" y1="0" x2=".8" y2="1"><stop stop-color="#63b9cb"/><stop offset=".55" stop-color="#4d468e"/><stop offset="1" stop-color="#15153c"/></linearGradient><linearGradient id="water" x1="0" y1="0" x2="0" y2="1"><stop stop-color="#b3fbff"/><stop offset="1" stop-color="#71a9ff" stop-opacity="0"/></linearGradient>
<filter id="glow"><feGaussianBlur stdDeviation="16"/></filter><clipPath id="globe"><circle cx="1020" cy="355" r="287"/></clipPath></defs>
<rect width="1500" height="830" fill="url(#sky)"/><ellipse cx="720" cy="220" rx="780" ry="500" fill="url(#neb)"/>
<circle cx="4" cy="4" r="2.2" fill="#abf4fc" opacity="0.2"/><circle cx="294" cy="142" r="0.55" fill="#faf4ff" opacity="0.305"/><circle cx="598" cy="302" r="0.55" fill="#faf4ff" opacity="0.41000000000000003"/><circle cx="916" cy="484" r="0.55" fill="#faf4ff" opacity="0.515"/><circle cx="1248" cy="688" r="1.2" fill="#abf4fc" opacity="0.62"/><circle cx="104" cy="94" r="0.55" fill="#faf4ff" opacity="0.7250000000000001"/><circle cx="464" cy="342" r="0.55" fill="#faf4ff" opacity="0.8300000000000001"/><circle cx="838" cy="612" r="0.55" fill="#faf4ff" opacity="0.2"/><circle cx="1226" cy="84" r="1.2" fill="#abf4fc" opacity="0.305"/><circle cx="138" cy="398" r="0.55" fill="#faf4ff" opacity="0.41000000000000003"/><circle cx="554" cy="734" r="0.55" fill="#faf4ff" opacity="0.515"/><circle cx="984" cy="272" r="0.55" fill="#faf4ff" opacity="0.62"/><circle cx="1428" cy="652" r="1.2" fill="#abf4fc" opacity="0.7250000000000001"/><circle cx="396" cy="234" r="0.55" fill="#faf4ff" opacity="0.8300000000000001"/><circle cx="868" cy="658" r="0.55" fill="#faf4ff" opacity="0.2"/><circle cx="1354" cy="284" r="2.2" fill="#faf4ff" opacity="0.305"/><circle cx="364" cy="752" r="1.2" fill="#abf4fc" opacity="0.41000000000000003"/><circle cx="878" cy="422" r="0.55" fill="#faf4ff" opacity="0.515"/><circle cx="1406" cy="114" r="0.55" fill="#faf4ff" opacity="0.62"/><circle cx="458" cy="648" r="0.55" fill="#faf4ff" opacity="0.7250000000000001"/><circle cx="1014" cy="384" r="1.2" fill="#abf4fc" opacity="0.8300000000000001"/><circle cx="94" cy="142" r="0.55" fill="#faf4ff" opacity="0.2"/><circle cx="678" cy="742" r="0.55" fill="#faf4ff" opacity="0.305"/><circle cx="1276" cy="544" r="0.55" fill="#faf4ff" opacity="0.41000000000000003"/><circle cx="398" cy="368" r="1.2" fill="#abf4fc" opacity="0.515"/><circle cx="1024" cy="214" r="0.55" fill="#faf4ff" opacity="0.62"/><circle cx="174" cy="82" r="0.55" fill="#faf4ff" opacity="0.7250000000000001"/><circle cx="828" cy="792" r="0.55" fill="#faf4ff" opacity="0.8300000000000001"/><circle cx="6" cy="704" r="1.2" fill="#abf4fc" opacity="0.2"/><circle cx="688" cy="638" r="0.55" fill="#faf4ff" opacity="0.305"/><circle cx="1384" cy="594" r="2.2" fill="#faf4ff" opacity="0.41000000000000003"/><circle cx="604" cy="572" r="0.55" fill="#faf4ff" opacity="0.515"/><circle cx="1328" cy="572" r="1.2" fill="#abf4fc" opacity="0.62"/><circle cx="576" cy="594" r="0.55" fill="#faf4ff" opacity="0.7250000000000001"/><circle cx="1328" cy="638" r="0.55" fill="#faf4ff" opacity="0.8300000000000001"/><circle cx="604" cy="704" r="0.55" fill="#faf4ff" opacity="0.2"/><circle cx="1384" cy="792" r="1.2" fill="#abf4fc" opacity="0.305"/><circle cx="688" cy="82" r="0.55" fill="#faf4ff" opacity="0.41000000000000003"/><circle cx="6" cy="214" r="0.55" fill="#faf4ff" opacity="0.515"/><circle cx="828" cy="368" r="0.55" fill="#faf4ff" opacity="0.62"/><circle cx="174" cy="544" r="1.2" fill="#abf4fc" opacity="0.7250000000000001"/><circle cx="1024" cy="742" r="0.55" fill="#faf4ff" opacity="0.8300000000000001"/><circle cx="398" cy="142" r="0.55" fill="#faf4ff" opacity="0.2"/><circle cx="1276" cy="384" r="0.55" fill="#faf4ff" opacity="0.305"/><circle cx="678" cy="648" r="1.2" fill="#abf4fc" opacity="0.41000000000000003"/><circle cx="94" cy="114" r="2.2" fill="#faf4ff" opacity="0.515"/><circle cx="1014" cy="422" r="0.55" fill="#faf4ff" opacity="0.62"/><circle cx="458" cy="752" r="0.55" fill="#faf4ff" opacity="0.7250000000000001"/><circle cx="1406" cy="284" r="1.2" fill="#abf4fc" opacity="0.8300000000000001"/><circle cx="878" cy="658" r="0.55" fill="#faf4ff" opacity="0.2"/><circle cx="364" cy="234" r="0.55" fill="#faf4ff" opacity="0.305"/><circle cx="1354" cy="652" r="0.55" fill="#faf4ff" opacity="0.41000000000000003"/><circle cx="868" cy="272" r="1.2" fill="#abf4fc" opacity="0.515"/><circle cx="396" cy="734" r="0.55" fill="#faf4ff" opacity="0.62"/><circle cx="1428" cy="398" r="0.55" fill="#faf4ff" opacity="0.7250000000000001"/><circle cx="984" cy="84" r="0.55" fill="#faf4ff" opacity="0.8300000000000001"/><circle cx="554" cy="612" r="1.2" fill="#abf4fc" opacity="0.2"/><circle cx="138" cy="342" r="0.55" fill="#faf4ff" opacity="0.305"/><circle cx="1226" cy="94" r="0.55" fill="#faf4ff" opacity="0.41000000000000003"/><circle cx="838" cy="688" r="0.55" fill="#faf4ff" opacity="0.515"/><circle cx="464" cy="484" r="2.2" fill="#abf4fc" opacity="0.62"/><circle cx="104" cy="302" r="0.55" fill="#faf4ff" opacity="0.7250000000000001"/><circle cx="1248" cy="142" r="0.55" fill="#faf4ff" opacity="0.8300000000000001"/><circle cx="916" cy="4" r="0.55" fill="#faf4ff" opacity="0.2"/><circle cx="598" cy="708" r="1.2" fill="#abf4fc" opacity="0.305"/><circle cx="294" cy="614" r="0.55" fill="#faf4ff" opacity="0.41000000000000003"/><circle cx="4" cy="542" r="0.55" fill="#faf4ff" opacity="0.515"/><circle cx="1218" cy="492" r="0.55" fill="#faf4ff" opacity="0.62"/><circle cx="956" cy="464" r="1.2" fill="#abf4fc" opacity="0.7250000000000001"/><circle cx="708" cy="458" r="0.55" fill="#faf4ff" opacity="0.8300000000000001"/><circle cx="474" cy="474" r="0.55" fill="#faf4ff" opacity="0.2"/><circle cx="254" cy="512" r="0.55" fill="#faf4ff" opacity="0.305"/><circle cx="48" cy="572" r="1.2" fill="#abf4fc" opacity="0.41000000000000003"/><circle cx="1346" cy="654" r="0.55" fill="#faf4ff" opacity="0.515"/><circle cx="1168" cy="758" r="0.55" fill="#faf4ff" opacity="0.62"/><circle cx="1004" cy="64" r="2.2" fill="#faf4ff" opacity="0.7250000000000001"/><circle cx="854" cy="212" r="1.2" fill="#abf4fc" opacity="0.8300000000000001"/><circle cx="718" cy="382" r="0.55" fill="#faf4ff" opacity="0.2"/><circle cx="596" cy="574" r="0.55" fill="#faf4ff" opacity="0.305"/><circle cx="488" cy="788" r="0.55" fill="#faf4ff" opacity="0.41000000000000003"/><circle cx="394" cy="204" r="1.2" fill="#abf4fc" opacity="0.515"/><circle cx="314" cy="462" r="0.55" fill="#faf4ff" opacity="0.62"/><circle cx="248" cy="742" r="0.55" fill="#faf4ff" opacity="0.7250000000000001"/><circle cx="196" cy="224" r="0.55" fill="#faf4ff" opacity="0.8300000000000001"/><circle cx="158" cy="548" r="1.2" fill="#abf4fc" opacity="0.2"/><circle cx="134" cy="74" r="0.55" fill="#faf4ff" opacity="0.305"/><circle cx="124" cy="442" r="0.55" fill="#faf4ff" opacity="0.41000000000000003"/><circle cx="128" cy="12" r="0.55" fill="#faf4ff" opacity="0.515"/><circle cx="146" cy="424" r="1.2" fill="#abf4fc" opacity="0.62"/><circle cx="178" cy="38" r="0.55" fill="#faf4ff" opacity="0.7250000000000001"/><circle cx="224" cy="494" r="2.2" fill="#faf4ff" opacity="0.8300000000000001"/><circle cx="284" cy="152" r="0.55" fill="#faf4ff" opacity="0.2"/><circle cx="358" cy="652" r="1.2" fill="#abf4fc" opacity="0.305"/><circle cx="446" cy="354" r="0.55" fill="#faf4ff" opacity="0.41000000000000003"/><circle cx="548" cy="78" r="0.55" fill="#faf4ff" opacity="0.515"/><circle cx="664" cy="644" r="0.55" fill="#faf4ff" opacity="0.62"/><circle cx="794" cy="412" r="1.2" fill="#abf4fc" opacity="0.7250000000000001"/><circle cx="938" cy="202" r="0.55" fill="#faf4ff" opacity="0.8300000000000001"/><circle cx="1096" cy="14" r="0.55" fill="#faf4ff" opacity="0.2"/><circle cx="1268" cy="668" r="0.55" fill="#faf4ff" opacity="0.305"/><circle cx="1454" cy="524" r="1.2" fill="#abf4fc" opacity="0.41000000000000003"/><circle cx="164" cy="402" r="0.55" fill="#faf4ff" opacity="0.515"/><circle cx="378" cy="302" r="0.55" fill="#faf4ff" opacity="0.62"/><circle cx="606" cy="224" r="0.55" fill="#faf4ff" opacity="0.7250000000000001"/><circle cx="848" cy="168" r="1.2" fill="#abf4fc" opacity="0.8300000000000001"/><circle cx="1104" cy="134" r="2.2" fill="#faf4ff" opacity="0.2"/><circle cx="1374" cy="122" r="0.55" fill="#faf4ff" opacity="0.305"/><circle cx="168" cy="132" r="0.55" fill="#faf4ff" opacity="0.41000000000000003"/><circle cx="466" cy="164" r="1.2" fill="#abf4fc" opacity="0.515"/><circle cx="778" cy="218" r="0.55" fill="#faf4ff" opacity="0.62"/><circle cx="1104" cy="294" r="0.55" fill="#faf4ff" opacity="0.7250000000000001"/><circle cx="1444" cy="392" r="0.55" fill="#faf4ff" opacity="0.8300000000000001"/><circle cx="308" cy="512" r="1.2" fill="#abf4fc" opacity="0.2"/><circle cx="676" cy="654" r="0.55" fill="#faf4ff" opacity="0.305"/><circle cx="1058" cy="818" r="0.55" fill="#faf4ff" opacity="0.41000000000000003"/><circle cx="1454" cy="184" r="0.55" fill="#faf4ff" opacity="0.515"/><circle cx="374" cy="392" r="1.2" fill="#abf4fc" opacity="0.62"/><circle cx="798" cy="622" r="0.55" fill="#faf4ff" opacity="0.7250000000000001"/><circle cx="1236" cy="54" r="0.55" fill="#faf4ff" opacity="0.8300000000000001"/><circle cx="198" cy="328" r="0.55" fill="#faf4ff" opacity="0.2"/><circle cx="664" cy="624" r="2.2" fill="#abf4fc" opacity="0.305"/><circle cx="1144" cy="122" r="0.55" fill="#faf4ff" opacity="0.41000000000000003"/><circle cx="148" cy="462" r="0.55" fill="#faf4ff" opacity="0.515"/><circle cx="656" cy="4" r="0.55" fill="#faf4ff" opacity="0.62"/><circle cx="1178" cy="388" r="1.2" fill="#abf4fc" opacity="0.7250000000000001"/><circle cx="224" cy="794" r="0.55" fill="#faf4ff" opacity="0.8300000000000001"/><circle cx="774" cy="402" r="0.55" fill="#faf4ff" opacity="0.2"/><circle cx="1338" cy="32" r="0.55" fill="#faf4ff" opacity="0.305"/><circle cx="426" cy="504" r="1.2" fill="#abf4fc" opacity="0.41000000000000003"/><circle cx="1018" cy="178" r="0.55" fill="#faf4ff" opacity="0.515"/><circle cx="134" cy="694" r="0.55" fill="#faf4ff" opacity="0.62"/><circle cx="754" cy="412" r="0.55" fill="#faf4ff" opacity="0.7250000000000001"/><circle cx="1388" cy="152" r="1.2" fill="#abf4fc" opacity="0.8300000000000001"/><circle cx="546" cy="734" r="0.55" fill="#faf4ff" opacity="0.2"/><circle cx="1208" cy="518" r="0.55" fill="#faf4ff" opacity="0.305"/><circle cx="394" cy="324" r="2.2" fill="#faf4ff" opacity="0.41000000000000003"/><circle cx="1084" cy="152" r="1.2" fill="#abf4fc" opacity="0.515"/><circle cx="298" cy="822" r="0.55" fill="#faf4ff" opacity="0.62"/><circle cx="1016" cy="694" r="0.55" fill="#faf4ff" opacity="0.7250000000000001"/><circle cx="258" cy="588" r="0.55" fill="#faf4ff" opacity="0.8300000000000001"/><circle cx="1004" cy="504" r="1.2" fill="#abf4fc" opacity="0.2"/><circle cx="274" cy="442" r="0.55" fill="#faf4ff" opacity="0.305"/><circle cx="1048" cy="402" r="0.55" fill="#faf4ff" opacity="0.41000000000000003"/><circle cx="346" cy="384" r="0.55" fill="#faf4ff" opacity="0.515"/><circle cx="1148" cy="388" r="1.2" fill="#abf4fc" opacity="0.62"/><circle cx="474" cy="414" r="0.55" fill="#faf4ff" opacity="0.7250000000000001"/><circle cx="1304" cy="462" r="0.55" fill="#faf4ff" opacity="0.8300000000000001"/><circle cx="658" cy="532" r="0.55" fill="#faf4ff" opacity="0.2"/><circle cx="26" cy="624" r="1.2" fill="#abf4fc" opacity="0.305"/><circle cx="898" cy="738" r="0.55" fill="#faf4ff" opacity="0.41000000000000003"/><circle cx="294" cy="54" r="2.2" fill="#faf4ff" opacity="0.515"/><circle cx="1194" cy="212" r="0.55" fill="#faf4ff" opacity="0.62"/><circle cx="618" cy="392" r="1.2" fill="#abf4fc" opacity="0.7250000000000001"/><circle cx="56" cy="594" r="0.55" fill="#faf4ff" opacity="0.8300000000000001"/><circle cx="998" cy="818" r="0.55" fill="#faf4ff" opacity="0.2"/><circle cx="464" cy="244" r="0.55" fill="#faf4ff" opacity="0.305"/><circle cx="1434" cy="512" r="1.2" fill="#abf4fc" opacity="0.41000000000000003"/><circle cx="928" cy="802" r="0.55" fill="#faf4ff" opacity="0.515"/><circle cx="436" cy="294" r="0.55" fill="#faf4ff" opacity="0.62"/><circle cx="1448" cy="628" r="0.55" fill="#faf4ff" opacity="0.7250000000000001"/><circle cx="984" cy="164" r="1.2" fill="#abf4fc" opacity="0.8300000000000001"/><circle cx="534" cy="542" r="0.55" fill="#faf4ff" opacity="0.2"/><circle cx="98" cy="122" r="0.55" fill="#faf4ff" opacity="0.305"/><circle cx="1166" cy="544" r="0.55" fill="#faf4ff" opacity="0.41000000000000003"/><circle cx="758" cy="168" r="1.2" fill="#abf4fc" opacity="0.515"/><circle cx="364" cy="634" r="2.2" fill="#faf4ff" opacity="0.62"/><circle cx="1474" cy="302" r="0.55" fill="#faf4ff" opacity="0.7250000000000001"/><circle cx="1108" cy="812" r="0.55" fill="#faf4ff" opacity="0.8300000000000001"/><circle cx="756" cy="524" r="1.2" fill="#abf4fc" opacity="0.2"/><circle cx="418" cy="258" r="0.55" fill="#faf4ff" opacity="0.305"/><circle cx="94" cy="14" r="0.55" fill="#faf4ff" opacity="0.41000000000000003"/><circle cx="1274" cy="612" r="0.55" fill="#faf4ff" opacity="0.515"/><circle cx="978" cy="412" r="1.2" fill="#abf4fc" opacity="0.62"/><circle cx="696" cy="234" r="0.55" fill="#faf4ff" opacity="0.7250000000000001"/><circle cx="428" cy="78" r="0.55" fill="#faf4ff" opacity="0.8300000000000001"/><circle cx="174" cy="764" r="0.55" fill="#faf4ff" opacity="0.2"/><circle cx="1424" cy="652" r="1.2" fill="#abf4fc" opacity="0.305"/><circle cx="1198" cy="562" r="0.55" fill="#faf4ff" opacity="0.41000000000000003"/><circle cx="986" cy="494" r="0.55" fill="#faf4ff" opacity="0.515"/><circle cx="788" cy="448" r="0.55" fill="#faf4ff" opacity="0.62"/><circle cx="604" cy="424" r="2.2" fill="#abf4fc" opacity="0.7250000000000001"/><circle cx="434" cy="422" r="0.55" fill="#faf4ff" opacity="0.8300000000000001"/><circle cx="278" cy="442" r="0.55" fill="#faf4ff" opacity="0.2"/><circle cx="136" cy="484" r="0.55" fill="#faf4ff" opacity="0.305"/><circle cx="8" cy="548" r="1.2" fill="#abf4fc" opacity="0.41000000000000003"/><circle cx="1384" cy="634" r="0.55" fill="#faf4ff" opacity="0.515"/><circle cx="1284" cy="742" r="0.55" fill="#faf4ff" opacity="0.62"/><circle cx="1198" cy="52" r="0.55" fill="#faf4ff" opacity="0.7250000000000001"/><circle cx="1126" cy="204" r="1.2" fill="#abf4fc" opacity="0.8300000000000001"/><circle cx="1068" cy="378" r="0.55" fill="#faf4ff" opacity="0.2"/><circle cx="1024" cy="574" r="0.55" fill="#faf4ff" opacity="0.305"/><circle cx="994" cy="792" r="0.55" fill="#faf4ff" opacity="0.41000000000000003"/><circle cx="978" cy="212" r="1.2" fill="#abf4fc" opacity="0.515"/><circle cx="976" cy="474" r="0.55" fill="#faf4ff" opacity="0.62"/><circle cx="988" cy="758" r="0.55" fill="#faf4ff" opacity="0.7250000000000001"/>
<circle cx="330" cy="170" r="68" fill="#12284d" stroke="#9fd9ef" stroke-opacity=".24"/><circle cx="488" cy="105" r="27" fill="#354179" stroke="#bbadff" stroke-opacity=".4"/>
<circle cx="1020" cy="355" r="287" fill="#6b8fc6" fill-opacity=".16" stroke="url(#orb)" stroke-width="5"/>
<g clip-path="url(#globe)">
<ellipse cx="1030" cy="590" rx="265" ry="79" fill="#d1c1ff" opacity=".27" filter="url(#glow)"/>
<path d="M760 565Q840 490 930 515T1150 507T1310 478L1325 665L750 670Z" fill="#474a8c" opacity=".37"/>
<g><path d="M835 410 Q1020 354 1209 413 L1141 465 1074 474 1011 554 964 470 886 470Z" fill="url(#island)" stroke="#c3f5ff" stroke-opacity=".5" stroke-width="3"/><path d="M843 405Q1031 362 1209 410Q1056 446 843 405Z" fill="#72a8ad" opacity=".8"/></g>
<path d="M1075 440C1075 520 1050 595 1091 688" stroke="url(#water)" stroke-width="31" fill="none" opacity=".69"/><path d="M904 438C890 507 875 575 893 641" stroke="url(#water)" stroke-width="13" fill="none" opacity=".64"/>
<path d="M850 372l11 -55l14 55l-13 23Z" fill="#88f2fe" stroke="#d9f8ff" stroke-opacity=".67"/><ellipse cx="858" cy="380" rx="22" ry="5" fill="#7b7bca" opacity=".5"/><path d="M912 360l14 -93l14 93l-13 23Z" fill="#ac9bfd" stroke="#d9f8ff" stroke-opacity=".67"/><ellipse cx="920" cy="368" rx="22" ry="5" fill="#7b7bca" opacity=".5"/><path d="M974 372l17 -131l14 131l-13 23Z" fill="#88f2fe" stroke="#d9f8ff" stroke-opacity=".67"/><ellipse cx="982" cy="380" rx="22" ry="5" fill="#7b7bca" opacity=".5"/><path d="M1036 360l11 -55l14 55l-13 23Z" fill="#ac9bfd" stroke="#d9f8ff" stroke-opacity=".67"/><ellipse cx="1044" cy="368" rx="22" ry="5" fill="#7b7bca" opacity=".5"/><path d="M1098 372l14 -93l14 93l-13 23Z" fill="#88f2fe" stroke="#d9f8ff" stroke-opacity=".67"/><ellipse cx="1106" cy="380" rx="22" ry="5" fill="#7b7bca" opacity=".5"/><path d="M1160 360l17 -131l14 131l-13 23Z" fill="#ac9bfd" stroke="#d9f8ff" stroke-opacity=".67"/><ellipse cx="1168" cy="368" rx="22" ry="5" fill="#7b7bca" opacity=".5"/>
<g stroke="#f5d7a8" stroke-width="3" fill="none" opacity=".83"><path d="M828 355 Q1000 332 1201 362"/><path d="M865 372v-69m0 0l-17-25m17 25l17-25"/><path d="M1188 368v-83"/><path d="M1150 314h79"/><path d="M1090 345l50-115 50 115"/></g>
<g fill="#c683df" opacity=".9"><ellipse cx="840" cy="380" rx="16" ry="7"/><path d="M840 380q-5-35 0-39q9 13 0 39" stroke="#cfb0fb" fill="none"/><ellipse cx="872" cy="370" rx="16" ry="7"/><path d="M872 370q-5-35 0-39q9 13 0 39" stroke="#cfb0fb" fill="none"/><ellipse cx="904" cy="380" rx="16" ry="7"/><path d="M904 380q-5-35 0-39q9 13 0 39" stroke="#cfb0fb" fill="none"/><ellipse cx="936" cy="370" rx="16" ry="7"/><path d="M936 370q-5-35 0-39q9 13 0 39" stroke="#cfb0fb" fill="none"/><ellipse cx="968" cy="380" rx="16" ry="7"/><path d="M968 380q-5-35 0-39q9 13 0 39" stroke="#cfb0fb" fill="none"/><ellipse cx="1000" cy="370" rx="16" ry="7"/><path d="M1000 370q-5-35 0-39q9 13 0 39" stroke="#cfb0fb" fill="none"/><ellipse cx="1032" cy="380" rx="16" ry="7"/><path d="M1032 380q-5-35 0-39q9 13 0 39" stroke="#cfb0fb" fill="none"/><ellipse cx="1064" cy="370" rx="16" ry="7"/><path d="M1064 370q-5-35 0-39q9 13 0 39" stroke="#cfb0fb" fill="none"/><ellipse cx="1096" cy="380" rx="16" ry="7"/><path d="M1096 380q-5-35 0-39q9 13 0 39" stroke="#cfb0fb" fill="none"/><ellipse cx="1128" cy="370" rx="16" ry="7"/><path d="M1128 370q-5-35 0-39q9 13 0 39" stroke="#cfb0fb" fill="none"/><ellipse cx="1160" cy="380" rx="16" ry="7"/><path d="M1160 380q-5-35 0-39q9 13 0 39" stroke="#cfb0fb" fill="none"/></g>
</g><circle cx="1020" cy="355" r="287" fill="none" stroke="#d4f9ff" stroke-opacity=".43" stroke-width="2"/>
<ellipse cx="1020" cy="640" rx="419" ry="67" fill="none" stroke="#ecd49e" stroke-width="6" transform="rotate(-12 1020 640)"/><ellipse cx="1020" cy="634" rx="470" ry="80" fill="none" stroke="#a998eb" stroke-opacity=".7" stroke-width="2"/>
<g stroke="#c5a17d" stroke-width="6" fill="none" opacity=".8"><path d="M0 720Q220 640 570 700T1500 675"/><path d="M0 810Q380 690 610 756T1500 720"/></g>
<path d="M0 765Q210 680 500 748T1000 752T1500 694L1500 840H0Z" fill="#11182f" opacity=".84"/>
</svg>